<svg width="94" height="94" viewBox="0 0 94 94" fill="none" xmlns="http://www.w3.org/2000/svg">
<path d="M82.8597 16.0012L74.7109 41.1781L73.7488 44.1498L67 65L92.2852 59.66C93.3946 55.5892 94 51.3027 94 46.8689C94 35.0773 89.7982 24.3002 82.8595 16L82.8597 16.0012Z" fill="#365CA8"/>
<path d="M62.6949 68.7415L41 72.9911L58.7486 92C74.2658 88.2274 86.7369 77.2313 92 63L65.7859 68.1356L62.6949 68.7415Z" fill="#B0C6FF"/>
<path d="M36.5905 71.2485L22.218 55L14 79.8676C22.4828 88.5839 34.3095 94 47.401 94C50.3404 94 53.2115 93.714 56 93.1924L38.6389 73.5646L36.5905 71.2485Z" fill="#365CA8"/>
<path d="M21.003 49.8501L28 29L1.77671 34.3408C0.627815 38.4107 0 42.6958 0 47.1294C0 58.9216 4.35792 69.7018 11.5551 78L20.0048 52.8213L21.003 49.8501Z" fill="#B0C6FF"/>
<path d="M31.3058 25.0605L53 20.6631L35.2504 1C19.7337 4.90403 7.26294 16.2785 2 31L28.2133 25.6868L31.3058 25.0605Z" fill="#365CA8"/>
<path d="M57.8721 22.7516L72.5873 39L81 14.1345C72.3162 5.41743 60.2074 0 46.8057 0C43.7958 0 40.8552 0.285201 38 0.807577L55.774 20.4353L57.8721 22.7516Z" fill="#B0C6FF"/>
</svg>
