<?xml version="1.0" encoding="UTF-8"?>
<svg width="79px" height="79px" viewBox="0 0 79 79" version="1.1" xmlns="http://www.w3.org/2000/svg" xmlns:xlink="http://www.w3.org/1999/xlink">
    <!-- Generator: Sketch 61.2 (89653) - https://sketch.com -->
    <title>Group 2</title>
    <desc>Created with Sketch.</desc>
    <g id="designer" stroke="none" stroke-width="1" fill="none" fill-rule="evenodd">
        <g id="Group-2">
            <circle id="Oval" fill="#FFFFFF" cx="39.5" cy="39.5" r="39.5"></circle>
            <path d="M24.5,53 C26.2416667,53 27.825,52.6156958 29.25,51.8470874 C30.675,51.078479 31.8130208,49.9761327 32.6640625,48.5400485 C33.5151042,47.1039644 33.9604167,45.3543689 34,43.2912621 L34,43.2912621 L34,28 L32.21875,28 L32.21875,43.2305825 C32.21875,45.8195793 31.4567708,47.7916667 29.9328125,49.1468447 C28.4088542,50.5020227 26.5979167,51.1796117 24.5,51.1796117 C22.4020833,51.1796117 20.5911458,50.5020227 19.0671875,49.1468447 C17.5432292,47.7916667 16.78125,45.8195793 16.78125,43.2305825 L16.78125,43.2305825 L15,43.2305825 C15,45.2936893 15.4255208,47.0533981 16.2765625,48.5097087 C17.1276042,49.9660194 18.2755208,51.078479 19.7203125,51.8470874 C21.1651042,52.6156958 22.7583333,53 24.5,53 Z M24.5,49 C25.9822695,49 27.2597518,48.5245665 28.3324468,47.5736994 C29.4051418,46.6228324 29.9609929,45.1965318 30,43.2947977 L30,43.2947977 L30,28 L28.2446809,28 L28.2446809,43.234104 C28.2446809,44.6098266 27.8741135,45.6112717 27.1329787,46.2384393 C26.391844,46.8656069 25.5141844,47.1791908 24.5,47.1791908 C23.4858156,47.1791908 22.608156,46.8656069 21.8670213,46.2384393 C21.1258865,45.6112717 20.7553191,44.6098266 20.7553191,43.234104 L20.7553191,43.234104 L19,43.234104 C19,45.1358382 19.5460993,46.5722543 20.6382979,47.5433526 C21.7304965,48.5144509 23.0177305,49 24.5,49 Z M51,53 C53.4362519,53 55.6328725,52.4249605 57.5898618,51.2748815 C59.546851,50.1248025 61.1044547,48.563981 62.2626728,46.5924171 C63.4208909,44.6208531 64,42.4233807 64,40 C64,37.535545 63.4208909,35.3278041 62.2626728,33.3767773 C61.1044547,31.4257504 59.546851,29.8751975 57.5898618,28.7251185 C55.6328725,27.5750395 53.4362519,27 51,27 C48.5637481,27 46.3671275,27.5750395 44.4101382,28.7251185 C42.453149,29.8751975 40.8955453,31.4257504 39.7373272,33.3767773 C38.5791091,35.3278041 38,37.535545 38,40 C38,42.4233807 38.5791091,44.6208531 39.7373272,46.5924171 C40.8955453,48.563981 42.453149,50.1248025 44.4101382,51.2748815 C46.3671275,52.4249605 48.5637481,53 51,53 Z M51,51 C48.9215686,51 47.0490196,50.5138122 45.3823529,49.5414365 C43.7156863,48.5690608 42.4019608,47.252302 41.4411765,45.5911602 C40.4803922,43.9300184 40,42.0662983 40,40 C40,37.893186 40.4803922,36.019337 41.4411765,34.378453 C42.4019608,32.7375691 43.7156863,31.4309392 45.3823529,30.4585635 C47.0490196,29.4861878 48.9215686,29 51,29 C53.0784314,29 54.9509804,29.4861878 56.6176471,30.4585635 C58.2843137,31.4309392 59.5980392,32.7375691 60.5588235,34.378453 C61.5196078,36.019337 62,37.893186 62,40 C62,42.0662983 61.5196078,43.9300184 60.5588235,45.5911602 C59.5980392,47.252302 58.2843137,48.5690608 56.6176471,49.5414365 C54.9509804,50.5138122 53.0784314,51 51,51 Z M51,49 C52.7086093,49 54.2384106,48.6068966 55.589404,47.8206897 C56.9403974,47.0344828 58.013245,45.9586207 58.807947,44.5931034 C59.602649,43.2275862 60,41.6965517 60,40 C60,38.3034483 59.602649,36.7724138 58.807947,35.4068966 C58.013245,34.0413793 56.9403974,32.9655172 55.589404,32.1793103 C54.2384106,31.3931034 52.7086093,31 51,31 C49.2913907,31 47.7615894,31.3931034 46.410596,32.1793103 C45.0596026,32.9655172 43.986755,34.0413793 43.192053,35.4068966 C42.397351,36.7724138 42,38.3034483 42,40 C42,41.6965517 42.397351,43.2275862 43.192053,44.5931034 C43.986755,45.9586207 45.0596026,47.0344828 46.410596,47.8206897 C47.7615894,48.6068966 49.2913907,49 51,49 Z M51,47 C48.9944904,47 47.3264463,46.3304348 45.9958678,44.9913043 C44.6652893,43.6521739 44,41.9884058 44,40 C44,37.9710145 44.6652893,36.2971014 45.9958678,34.9782609 C47.3264463,33.6594203 48.9944904,33 51,33 C53.0055096,33 54.6735537,33.6594203 56.0041322,34.9782609 C57.3347107,36.2971014 58,37.9710145 58,40 C58,41.9884058 57.3347107,43.6521739 56.0041322,44.9913043 C54.6735537,46.3304348 53.0055096,47 51,47 Z" id="jo" fill="#000000" fill-rule="nonzero"></path>
        </g>
    </g>
</svg>