<svg width="403" height="269" viewBox="0 0 403 269" fill="none" xmlns="http://www.w3.org/2000/svg">
<path d="M156.324 9.15907C157.873 9.15907 159.4 9.22741 160.903 9.3641L160.972 9.43244C160.288 17.3148 159.514 25.1744 158.648 33.0112C157.828 40.848 157.099 48.7304 156.461 56.6583C156.142 56.7494 155.777 56.795 155.367 56.795C155.003 56.795 154.593 56.795 154.137 56.795H151.677H150.857C150.447 56.2482 150.082 55.4736 149.763 54.4713C149.49 53.4233 149.194 52.3298 148.875 51.1907C148.556 50.0061 148.237 48.867 147.918 47.7735C147.599 46.68 147.234 45.8143 146.824 45.1765H146.756C146.346 45.5865 145.981 46.3155 145.663 47.3635C145.389 48.3659 145.116 49.4594 144.842 50.644C144.569 51.7831 144.296 52.8993 144.022 53.9929C143.749 55.0864 143.43 55.9293 143.065 56.5216C142.473 56.6127 141.926 56.7038 141.425 56.795C140.924 56.8405 140.354 56.8633 139.717 56.8633C138.988 56.8633 138.122 56.795 137.119 56.6583H137.051C135.958 48.867 134.887 41.0302 133.839 33.1479C132.791 25.2655 132.199 17.3832 132.062 9.50079V9.43244C132.745 9.34132 133.452 9.27298 134.181 9.22741C134.955 9.13629 135.73 9.09072 136.504 9.09072C137.416 9.09072 138.327 9.11351 139.238 9.15907C140.149 9.20463 141.015 9.25019 141.835 9.29576C142.017 11.3005 142.109 13.5559 142.109 16.0618C142.109 18.5678 142.109 21.0965 142.109 23.648C142.109 26.1996 142.177 28.7055 142.314 31.1659C142.45 33.6263 142.769 35.8361 143.27 37.7953C143.863 35.745 144.387 33.7402 144.842 31.781C145.344 29.7762 145.845 27.7487 146.346 25.6984C146.392 25.6072 146.414 25.5389 146.414 25.4933C146.414 25.4478 146.437 25.4022 146.483 25.3566C146.665 25.4933 146.915 26.154 147.234 27.3386C147.599 28.4777 147.941 29.7762 148.26 31.2342C148.624 32.6923 148.966 34.1275 149.285 35.5399C149.649 36.9524 149.968 38.0003 150.242 38.6838C150.424 36.7246 150.561 34.492 150.652 31.986C150.743 29.4345 150.811 26.8374 150.857 24.1948C150.948 21.5521 151.016 18.9778 151.062 16.4719C151.153 13.9204 151.29 11.6422 151.472 9.63748V9.56914C152.246 9.38688 153.044 9.27298 153.864 9.22741C154.684 9.18185 155.504 9.15907 156.324 9.15907ZM173.673 24.8099C173.673 25.7667 173.673 26.3362 173.673 26.5185C173.901 26.3818 174.174 26.2223 174.493 26.0401C174.858 25.8578 175.154 25.6756 175.382 25.4933C176.338 24.8099 177.409 24.2631 178.594 23.8531C179.778 23.443 180.986 23.2152 182.216 23.1696C183.492 23.1241 184.722 23.2608 185.907 23.5797C187.091 23.8986 188.162 24.4682 189.119 25.2883C189.574 25.6984 189.916 26.5641 190.144 27.8854C190.417 29.1611 190.577 30.7103 190.622 32.5328C190.713 34.3553 190.736 36.3601 190.691 38.5471C190.691 40.6885 190.668 42.8755 190.622 45.1081C190.577 47.2951 190.531 49.4138 190.486 51.4641C190.44 53.5144 190.463 55.3142 190.554 56.8633C188.959 57.0911 187.524 57.1823 186.248 57.1367C185.018 57.1367 183.606 57.1367 182.011 57.1367C181.92 56.0887 181.874 54.9041 181.874 53.5828C181.874 52.2615 181.874 50.8946 181.874 49.4821C181.92 48.0697 181.92 46.6572 181.874 45.2448C181.874 43.8324 181.829 42.511 181.738 41.2808C181.692 40.7341 181.646 40.1418 181.601 39.5039C181.555 38.8204 181.464 38.1598 181.327 37.5219C181.236 36.884 181.077 36.3145 180.849 35.8133C180.667 35.3121 180.393 34.9248 180.029 34.6515C179.983 34.6059 179.938 34.5831 179.892 34.5831C179.847 34.5831 179.801 34.5603 179.756 34.5148C179.391 34.3325 178.844 34.1958 178.115 34.1047C177.432 33.968 176.748 34.0136 176.065 34.2414C175.382 34.4236 174.766 34.8337 174.22 35.4716C173.673 36.0639 173.354 36.9752 173.263 38.2053C173.172 39.8 173.149 41.372 173.195 42.9211C173.24 44.4247 173.286 45.951 173.331 47.5002C173.422 49.0037 173.468 50.5073 173.468 52.0109C173.468 53.5144 173.377 55.018 173.195 56.5216V56.795C172.42 57.0228 171.737 57.1595 171.144 57.205C170.597 57.2506 170.028 57.2506 169.436 57.205C168.843 57.205 168.183 57.1823 167.454 57.1367C166.725 57.0911 165.813 57.1139 164.72 57.205C164.72 55.337 164.697 53.1044 164.652 50.5073C164.652 47.8647 164.629 45.0398 164.583 42.0326C164.583 39.0255 164.583 35.9272 164.583 32.7378C164.583 29.5029 164.583 26.359 164.583 23.3063C164.583 20.2536 164.583 17.3832 164.583 14.6949C164.629 11.9612 164.674 9.59192 164.72 7.58715C165.267 7.63271 165.722 7.67828 166.087 7.72384C166.451 7.72384 166.793 7.72384 167.112 7.72384C167.431 7.72384 167.773 7.72384 168.137 7.72384C168.502 7.67828 168.957 7.63271 169.504 7.58715C169.686 7.58715 170.005 7.56437 170.461 7.51881C170.916 7.42768 171.372 7.35934 171.828 7.31377C172.283 7.26821 172.693 7.26821 173.058 7.31377C173.422 7.31377 173.605 7.38212 173.605 7.51881C173.65 7.74662 173.673 8.36172 173.673 9.3641C173.673 10.3209 173.673 11.4828 173.673 12.8497C173.673 14.171 173.673 15.6062 173.673 17.1553C173.673 18.6589 173.673 20.0714 173.673 21.3927C173.673 22.714 173.673 23.8531 173.673 24.8099ZM219.002 22.7596C220.141 22.8051 221.439 22.8735 222.897 22.9646C222.943 23.238 222.966 23.5113 222.966 23.7847C223.011 24.0581 223.034 24.3315 223.034 24.6049V25.2883C222.897 30.2091 222.92 35.0615 223.102 39.8456C223.285 44.5841 223.216 49.391 222.897 54.2662C222.897 54.8585 222.875 55.4509 222.829 56.0432C222.829 56.6355 222.556 56.9772 222.009 57.0683H221.189C220.46 57.0683 219.708 57.0456 218.933 57C218.204 56.9089 217.475 56.8633 216.746 56.8633C216.245 56.8633 215.744 56.9089 215.243 57C214.787 57.0456 214.309 57.0683 213.808 57.0683C213.489 56.9772 213.261 56.795 213.124 56.5216C213.033 56.2482 212.987 55.9293 212.987 55.5648C212.987 55.0636 213.033 54.6535 213.124 54.3346C213.215 54.0156 213.261 53.6284 213.261 53.1727C212.167 54.2662 210.778 55.2003 209.092 55.9748C207.452 56.7494 205.834 57.1367 204.239 57.1367C202.462 57.1367 200.936 56.5216 199.66 55.2914C198.43 54.0612 197.405 52.5348 196.585 50.7123C195.765 48.8898 195.15 46.9078 194.74 44.7664C194.375 42.6249 194.193 40.643 194.193 38.8204C194.193 36.5423 194.489 34.4464 195.081 32.5328C195.674 30.6191 196.471 28.9789 197.473 27.612C198.521 26.1996 199.751 25.106 201.164 24.3315C202.576 23.5113 204.08 23.0785 205.675 23.0329C206.495 23.0329 207.246 23.0557 207.93 23.1013C208.659 23.1013 209.32 23.2152 209.912 23.443C210.504 23.6253 211.028 23.9442 211.484 24.3998C211.939 24.8099 212.327 25.4022 212.646 26.1768C212.6 25.4478 212.623 24.8327 212.714 24.3315C212.851 23.7847 212.919 23.238 212.919 22.6912C212.919 22.6457 213.056 22.6229 213.329 22.6229C213.648 22.5773 213.99 22.5773 214.354 22.6229C214.719 22.6229 215.083 22.6229 215.448 22.6229C215.812 22.6229 216.063 22.6229 216.2 22.6229C216.974 22.6684 217.908 22.714 219.002 22.7596ZM204.923 33.5579C203.875 34.4236 203.237 35.426 203.009 36.5651C202.827 37.1574 202.713 37.7725 202.667 38.4104C202.622 39.0027 202.599 39.595 202.599 40.1873C202.599 42.2377 203.123 43.9918 204.171 45.4498C205.265 46.8623 206.768 47.5685 208.682 47.5685C209.821 47.5685 210.664 47.3863 211.21 47.0217C211.803 46.6117 212.213 46.0649 212.441 45.3815C212.714 44.6525 212.851 43.7868 212.851 42.7844C212.896 41.7365 212.919 40.5746 212.919 39.2989C212.919 37.7042 212.896 36.4512 212.851 35.5399C212.851 34.5831 212.737 33.8541 212.509 33.3529C212.327 32.8517 211.985 32.5328 211.484 32.3961C211.028 32.2594 210.322 32.1911 209.365 32.1911C207.497 32.1911 206.016 32.6467 204.923 33.5579ZM237.768 10.3209C238.543 10.3665 239.317 10.3437 240.092 10.2526V19.4107C240.092 20.003 240.092 20.6181 240.092 21.256C240.137 21.8939 240.16 22.5545 240.16 23.238C241.573 23.1924 243.053 23.1241 244.602 23.0329C246.197 22.9418 248.156 22.8279 250.48 22.6912C250.799 23.0557 250.981 23.6025 251.027 24.3315C251.072 25.0149 251.072 25.7667 251.027 26.5868C250.981 27.407 250.913 28.2499 250.822 29.1156C250.776 29.9357 250.799 30.6419 250.89 31.2342H240.297C240.297 33.6946 240.297 36.1095 240.297 38.4787C240.297 40.8024 240.32 42.9894 240.365 45.0398C240.821 45.6776 241.481 46.1788 242.347 46.5433C243.213 46.9078 244.147 47.204 245.149 47.4318C246.152 47.6141 247.154 47.728 248.156 47.7735C249.204 47.8191 250.116 47.8191 250.89 47.7735C250.981 48.4114 251.072 49.1176 251.163 49.8922C251.255 50.6668 251.323 51.4641 251.369 52.2843C251.414 53.1044 251.391 53.9245 251.3 54.7446C251.255 55.5648 251.118 56.3166 250.89 57C249.068 57.0911 247.177 57.0911 245.218 57C243.258 56.8633 241.413 56.5899 239.682 56.1799C237.95 55.7698 236.401 55.1547 235.034 54.3346C233.713 53.5144 232.756 52.3982 232.164 50.9857C231.571 47.4774 231.23 44.1741 231.139 41.0758C231.048 37.932 231.025 34.697 231.07 31.3709C230.341 31.4165 229.567 31.4393 228.747 31.4393C227.972 31.4393 227.106 31.4393 226.15 31.4393L226.355 23.1013C227.266 23.1468 228.109 23.1696 228.883 23.1696C229.703 23.1696 230.478 23.1696 231.207 23.1696C231.207 22.1672 231.184 21.0965 231.139 19.9574C231.093 18.7728 231.07 17.5882 231.07 16.4036C231.07 15.2189 231.07 14.0799 231.07 12.9863C231.116 11.8928 231.184 10.9132 231.275 10.0475C231.868 9.95642 232.506 9.93364 233.189 9.9792C233.918 10.0248 234.67 10.0931 235.444 10.1842C236.219 10.2298 236.993 10.2754 237.768 10.3209ZM166.654 75.3209C167.429 75.3665 168.203 75.3437 168.978 75.2526V84.4107C168.978 85.003 168.978 85.6181 168.978 86.256C169.023 86.8939 169.046 87.5545 169.046 88.238C170.459 88.1924 171.939 88.1241 173.488 88.0329C175.083 87.9418 177.042 87.8279 179.366 87.6912C179.685 88.0557 179.867 88.6025 179.913 89.3315C179.958 90.0149 179.958 90.7667 179.913 91.5868C179.867 92.407 179.799 93.2499 179.708 94.1156C179.662 94.9357 179.685 95.6419 179.776 96.2342H169.183C169.183 98.6946 169.183 101.109 169.183 103.479C169.183 105.802 169.206 107.989 169.251 110.04C169.707 110.678 170.367 111.179 171.233 111.543C172.099 111.908 173.033 112.204 174.035 112.432C175.038 112.614 176.04 112.728 177.042 112.774C178.09 112.819 179.002 112.819 179.776 112.774C179.867 113.411 179.958 114.118 180.05 114.892C180.141 115.667 180.209 116.464 180.255 117.284C180.3 118.104 180.277 118.925 180.186 119.745C180.141 120.565 180.004 121.317 179.776 122C177.954 122.091 176.063 122.091 174.104 122C172.144 121.863 170.299 121.59 168.568 121.18C166.836 120.77 165.287 120.155 163.92 119.335C162.599 118.514 161.642 117.398 161.05 115.986C160.458 112.477 160.116 109.174 160.025 106.076C159.934 102.932 159.911 99.697 159.956 96.3709C159.227 96.4165 158.453 96.4393 157.633 96.4393C156.858 96.4393 155.992 96.4393 155.036 96.4393L155.241 88.1013C156.152 88.1468 156.995 88.1696 157.769 88.1696C158.589 88.1696 159.364 88.1696 160.093 88.1696C160.093 87.1672 160.07 86.0965 160.025 84.9574C159.979 83.7728 159.956 82.5882 159.956 81.4036C159.956 80.2189 159.956 79.0799 159.956 77.9863C160.002 76.8928 160.07 75.9132 160.161 75.0475C160.754 74.9564 161.392 74.9336 162.075 74.9792C162.804 75.0248 163.556 75.0931 164.33 75.1842C165.105 75.2298 165.879 75.2754 166.654 75.3209ZM192.127 89.8099C192.127 90.7667 192.127 91.3362 192.127 91.5185C192.355 91.3818 192.628 91.2223 192.947 91.0401C193.312 90.8578 193.608 90.6756 193.836 90.4933C194.793 89.8099 195.863 89.2631 197.048 88.8531C198.233 88.443 199.44 88.2152 200.67 88.1696C201.946 88.1241 203.176 88.2608 204.361 88.5797C205.545 88.8986 206.616 89.4682 207.573 90.2883C208.029 90.6984 208.37 91.5641 208.598 92.8854C208.872 94.1611 209.031 95.7103 209.077 97.5328C209.168 99.3553 209.19 101.36 209.145 103.547C209.145 105.689 209.122 107.876 209.077 110.108C209.031 112.295 208.985 114.414 208.94 116.464C208.894 118.514 208.917 120.314 209.008 121.863C207.414 122.091 205.978 122.182 204.703 122.137C203.472 122.137 202.06 122.137 200.465 122.137C200.374 121.089 200.329 119.904 200.329 118.583C200.329 117.261 200.329 115.895 200.329 114.482C200.374 113.07 200.374 111.657 200.329 110.245C200.329 108.832 200.283 107.511 200.192 106.281C200.146 105.734 200.101 105.142 200.055 104.504C200.01 103.82 199.918 103.16 199.782 102.522C199.691 101.884 199.531 101.314 199.303 100.813C199.121 100.312 198.848 99.9248 198.483 99.6515C198.438 99.6059 198.392 99.5831 198.347 99.5831C198.301 99.5831 198.255 99.5603 198.21 99.5148C197.845 99.3325 197.299 99.1958 196.57 99.1047C195.886 98.968 195.203 99.0136 194.519 99.2414C193.836 99.4236 193.221 99.8337 192.674 100.472C192.127 101.064 191.808 101.975 191.717 103.205C191.626 104.8 191.603 106.372 191.649 107.921C191.694 109.425 191.74 110.951 191.785 112.5C191.877 114.004 191.922 115.507 191.922 117.011C191.922 118.514 191.831 120.018 191.649 121.522V121.795C190.874 122.023 190.191 122.159 189.598 122.205C189.052 122.251 188.482 122.251 187.89 122.205C187.298 122.205 186.637 122.182 185.908 122.137C185.179 122.091 184.268 122.114 183.174 122.205C183.174 120.337 183.151 118.104 183.106 115.507C183.106 112.865 183.083 110.04 183.037 107.033C183.037 104.025 183.037 100.927 183.037 97.7378C183.037 94.5029 183.037 91.359 183.037 88.3063C183.037 85.2536 183.037 82.3832 183.037 79.6949C183.083 76.9612 183.129 74.5919 183.174 72.5872C183.721 72.6327 184.177 72.6783 184.541 72.7238C184.906 72.7238 185.247 72.7238 185.566 72.7238C185.885 72.7238 186.227 72.7238 186.591 72.7238C186.956 72.6783 187.411 72.6327 187.958 72.5872C188.14 72.5872 188.459 72.5644 188.915 72.5188C189.371 72.4277 189.826 72.3593 190.282 72.3138C190.738 72.2682 191.148 72.2682 191.512 72.3138C191.877 72.3138 192.059 72.3821 192.059 72.5188C192.104 72.7466 192.127 73.3617 192.127 74.3641C192.127 75.3209 192.127 76.4828 192.127 77.8497C192.127 79.171 192.127 80.6062 192.127 82.1553C192.127 83.6589 192.127 85.0714 192.127 86.3927C192.127 87.714 192.127 88.8531 192.127 89.8099ZM224.197 105.051C223.195 105.005 222.466 104.937 222.01 104.846V106.076C222.056 107.443 222.101 108.559 222.147 109.425C222.238 110.29 222.534 111.133 223.035 111.953C223.582 113.001 224.357 113.776 225.359 114.277C226.361 114.778 227.341 114.938 228.298 114.756C229.255 114.573 230.052 114.027 230.69 113.115C231.373 112.158 231.669 110.746 231.578 108.878C232.034 108.923 232.649 108.946 233.424 108.946C234.198 108.901 234.996 108.855 235.816 108.81C236.681 108.764 237.502 108.764 238.276 108.81C239.051 108.81 239.689 108.878 240.19 109.015C240.099 110.199 240.007 111.361 239.916 112.5C239.825 113.639 239.711 114.71 239.575 115.712C239.438 116.669 239.256 117.512 239.028 118.241C238.846 118.925 238.595 119.403 238.276 119.676C237.502 120.77 236.499 121.544 235.269 122C234.039 122.456 232.695 122.729 231.237 122.82C229.779 122.911 228.275 122.911 226.726 122.82C225.222 122.729 223.833 122.683 222.557 122.683C221.281 122.501 220.097 122.091 219.003 121.453C217.773 120.588 216.748 119.471 215.928 118.104C215.107 116.692 214.447 115.166 213.946 113.525C213.444 111.839 213.103 110.063 212.92 108.194C212.738 106.326 212.693 104.458 212.784 102.59C212.92 100.904 213.057 99.2869 213.194 97.7378C213.376 96.1431 213.741 94.594 214.287 93.0904C214.88 91.7691 215.791 90.6528 217.021 89.7415C218.251 88.7847 219.641 88.0785 221.19 87.6229C222.739 87.1217 224.379 86.8483 226.111 86.8027C227.842 86.7572 229.528 86.9394 231.168 87.3495C233.264 87.714 234.95 88.443 236.226 89.5365C237.502 90.63 238.458 91.9513 239.096 93.5005C239.78 95.0496 240.19 96.7582 240.326 98.6263C240.463 100.494 240.463 102.385 240.326 104.299C240.007 104.39 239.392 104.481 238.481 104.572C237.615 104.663 236.567 104.754 235.337 104.846C234.153 104.937 232.877 105.005 231.51 105.051C230.143 105.096 228.822 105.119 227.546 105.119C226.316 105.119 225.2 105.096 224.197 105.051ZM232.193 96.0976C231.738 95.2774 231.1 94.6623 230.28 94.2523C229.915 94.0244 229.551 93.865 229.186 93.7739C228.822 93.6372 228.389 93.5688 227.888 93.5688C226.794 93.5688 225.906 93.6827 225.222 93.9105C224.539 94.1384 223.992 94.4573 223.582 94.8674C223.172 95.2774 222.853 95.7558 222.625 96.3026C222.443 96.8493 222.306 97.4189 222.215 98.0112C222.124 98.5124 222.079 98.8769 222.079 99.1047C222.124 99.2869 222.352 99.4236 222.762 99.5148C223.172 99.5603 223.81 99.5831 224.676 99.5831C225.587 99.5375 226.908 99.5148 228.64 99.5148C229.824 99.5148 230.713 99.5375 231.305 99.5831C231.897 99.6287 232.307 99.6515 232.535 99.6515C232.809 99.6059 232.945 99.5375 232.945 99.4464C232.945 99.3097 232.945 99.0591 232.945 98.6946C232.945 97.7834 232.695 96.9177 232.193 96.0976Z" fill="black"/>
<path d="M129.386 164.623C130.434 164.668 131.687 164.668 133.145 164.623H134.307V164.828C134.262 170.341 134.148 175.968 133.965 181.709C133.829 187.45 133.92 193.077 134.239 198.59C134.011 198.863 133.441 199 132.53 199C131.619 199.046 130.617 199.046 129.523 199C128.475 199 127.473 198.977 126.516 198.932C125.559 198.886 124.921 198.909 124.602 199C124.83 196.13 124.921 193.214 124.876 190.252C124.876 187.29 124.83 184.352 124.739 181.436C124.648 178.52 124.602 175.649 124.602 172.824C124.602 169.954 124.739 167.174 125.012 164.486V164.418C125.195 164.372 125.491 164.372 125.901 164.418C126.356 164.463 126.698 164.486 126.926 164.486C127.518 164.532 128.338 164.577 129.386 164.623ZM124.807 155.055C124.716 153.597 124.693 151.82 124.739 149.724L134.034 149.929C134.034 150.202 134.034 150.703 134.034 151.432C134.079 152.116 134.102 152.89 134.102 153.756C134.148 154.576 134.17 155.442 134.17 156.353C134.216 157.219 134.239 157.993 134.239 158.677C134.057 158.95 133.624 159.133 132.94 159.224C132.302 159.315 131.528 159.36 130.617 159.36C129.751 159.315 128.817 159.269 127.814 159.224C126.812 159.133 125.878 159.11 125.012 159.155C125.012 157.834 124.944 156.467 124.807 155.055ZM164.927 168.724C165.839 170.683 166.294 172.893 166.294 175.353C164.836 175.581 163.219 175.717 161.442 175.763C159.711 175.809 158.07 175.672 156.521 175.353C156.658 174.806 156.59 174.259 156.316 173.713C156.088 173.166 155.724 172.687 155.223 172.277C154.767 171.867 154.22 171.571 153.582 171.389C152.99 171.161 152.398 171.07 151.805 171.116C150.757 171.298 149.96 171.708 149.413 172.346C148.912 172.938 148.662 173.599 148.662 174.328C148.662 175.057 148.935 175.786 149.482 176.515C150.028 177.244 150.826 177.791 151.874 178.155C154.425 178.52 156.817 179.021 159.05 179.659C161.282 180.251 162.923 181.231 163.971 182.597C164.973 184.238 165.588 185.923 165.816 187.655C166.044 189.341 165.725 191.437 164.859 193.943C163.811 196.175 162.171 197.77 159.938 198.727C157.706 199.683 155.268 200.139 152.626 200.094C150.302 200.185 148.206 199.98 146.338 199.478C144.47 198.977 142.852 198.225 141.485 197.223C140.164 196.221 139.116 194.99 138.342 193.532C137.613 192.074 137.248 190.434 137.248 188.612V188.407V188.27C138.752 188.088 140.46 188.042 142.374 188.133C144.288 188.179 145.951 188.202 147.363 188.202C147.409 189.25 147.887 190.115 148.798 190.799C149.755 191.437 150.757 191.824 151.805 191.961C152.853 192.052 153.81 191.847 154.676 191.345C155.542 190.844 155.952 189.933 155.906 188.612C156.043 187.518 155.792 186.698 155.154 186.151C154.516 185.605 153.673 185.194 152.626 184.921C151.578 184.602 150.393 184.329 149.072 184.101C147.75 183.873 146.452 183.486 145.176 182.939C142.625 182.073 140.756 180.729 139.572 178.907C138.433 177.039 137.886 175.125 137.932 173.166C138.023 171.161 138.661 169.316 139.845 167.63C141.075 165.944 142.807 164.805 145.039 164.213C145.905 163.985 146.953 163.803 148.183 163.666C149.459 163.529 150.803 163.461 152.215 163.461C153.628 163.461 155.04 163.552 156.453 163.734C157.865 163.871 159.164 164.076 160.348 164.349C162.49 165.261 164.016 166.719 164.927 168.724ZM194.908 174.669V189.569V198.727C194.134 198.635 193.359 198.613 192.584 198.658C191.81 198.704 191.035 198.772 190.261 198.863C189.486 198.909 188.734 198.954 188.005 199C187.322 199.046 186.684 199.023 186.092 198.932C186.001 198.385 185.932 197.496 185.887 196.266C185.887 194.99 185.864 193.578 185.818 192.029C185.818 190.434 185.818 188.771 185.818 187.04C185.818 185.308 185.818 183.645 185.818 182.051C185.864 180.41 185.887 178.952 185.887 177.677C185.932 176.401 185.955 175.421 185.955 174.738C185.226 174.738 184.452 174.738 183.631 174.738C182.857 174.738 182.014 174.761 181.103 174.806L180.898 166.468C181.854 166.468 182.72 166.468 183.495 166.468C184.315 166.468 185.089 166.491 185.818 166.537C185.727 165.397 185.75 164.167 185.887 162.846C186.023 161.525 186.342 160.249 186.844 159.019C187.39 157.743 188.142 156.604 189.099 155.601C190.056 154.553 191.309 153.779 192.858 153.278C194.771 152.64 196.845 152.253 199.077 152.116C201.355 151.934 203.565 151.888 205.707 151.979C205.934 152.663 206.071 153.414 206.117 154.235C206.208 155.055 206.231 155.875 206.185 156.695C206.139 157.515 206.071 158.312 205.98 159.087C205.889 159.862 205.798 160.568 205.707 161.206C205.16 161.16 204.522 161.16 203.793 161.206C203.109 161.251 202.38 161.32 201.606 161.411C200.831 161.502 200.057 161.616 199.282 161.752C198.508 161.844 197.801 161.935 197.164 162.026C196.116 162.208 195.455 162.755 195.182 163.666C194.954 164.532 194.954 165.534 195.182 166.673H205.638C205.547 167.174 205.524 167.676 205.57 168.177C205.615 168.632 205.615 169.179 205.57 169.817C205.57 170.318 205.57 170.728 205.57 171.047C205.57 171.321 205.547 171.617 205.502 171.936C205.502 172.255 205.479 172.665 205.433 173.166C205.388 173.667 205.319 174.351 205.228 175.216C202.904 175.08 200.945 174.966 199.351 174.875C197.801 174.783 196.321 174.715 194.908 174.669ZM208.502 169.885C208.776 169.02 208.981 168.336 209.117 167.835C209.436 167.152 209.937 166.559 210.621 166.058C211.35 165.557 212.17 165.147 213.081 164.828C214.038 164.463 215.041 164.213 216.088 164.076C217.182 163.939 218.275 163.871 219.369 163.871C220.28 163.962 221.146 163.985 221.966 163.939C222.832 163.848 223.743 163.848 224.7 163.939C226.158 164.031 227.548 164.327 228.869 164.828C230.19 165.284 231.329 165.967 232.286 166.878C232.924 167.288 233.425 167.949 233.79 168.86C234.154 169.771 234.427 170.842 234.61 172.072C234.792 173.257 234.906 174.578 234.951 176.036C234.997 177.449 235.043 178.907 235.088 180.41C235.043 181.732 234.974 183.235 234.883 184.921C234.838 186.607 234.724 188.224 234.541 189.774C234.405 191.323 234.2 192.712 233.926 193.943C233.698 195.173 233.357 196.016 232.901 196.471C232.127 197.565 231.101 198.339 229.826 198.795C228.595 199.251 227.251 199.524 225.793 199.615C224.335 199.752 222.832 199.752 221.283 199.615C219.733 199.524 218.321 199.478 217.045 199.478C214.722 199.068 212.762 198.066 211.168 196.471C209.937 195.378 209.095 194.011 208.639 192.371C208.183 190.73 207.91 189.022 207.819 187.245C207.728 185.422 207.705 183.6 207.75 181.777C207.842 179.955 207.819 178.292 207.682 176.788C207.682 175.968 207.705 175.171 207.75 174.396C207.796 173.576 207.887 172.733 208.024 171.867C208.069 171.366 208.229 170.706 208.502 169.885ZM219.984 174.396C219.027 174.669 218.253 175.171 217.66 175.9C217.387 176.082 217.182 176.538 217.045 177.267C216.863 178.725 216.772 180.183 216.772 181.641C216.772 183.053 216.726 184.557 216.635 186.151C216.59 187.199 216.863 188.019 217.455 188.612C218.048 189.158 218.754 189.546 219.574 189.774C220.44 189.956 221.328 190.001 222.239 189.91C223.151 189.774 223.902 189.546 224.495 189.227C225.269 188.862 225.793 188.11 226.067 186.971C226.249 185.513 226.386 184.055 226.477 182.597C226.613 181.094 226.545 179.681 226.272 178.36C226.044 176.765 225.383 175.604 224.29 174.875C223.196 174.145 221.761 173.986 219.984 174.396ZM248.432 166.537C248.477 166.673 248.5 166.901 248.5 167.22C248.682 167.129 249.092 166.947 249.73 166.673C250.414 166.4 251.074 166.149 251.712 165.921C252.578 165.648 253.558 165.443 254.651 165.306C255.745 165.124 256.77 165.01 257.727 164.965C258.683 164.919 259.481 164.919 260.119 164.965C260.802 164.965 261.144 164.987 261.144 165.033C261.144 166.582 261.121 167.949 261.075 169.134C261.075 170.318 261.075 171.389 261.075 172.346C261.075 173.257 261.075 174.1 261.075 174.875C261.075 175.649 261.098 176.378 261.144 177.062L260.529 176.856C260.301 176.765 260.05 176.697 259.777 176.651C259.549 176.56 259.321 176.469 259.094 176.378C258.547 176.241 257.977 176.127 257.385 176.036C256.838 175.945 256.542 175.9 256.496 175.9C255.266 175.763 254.127 175.695 253.079 175.695C252.077 175.695 251.188 175.854 250.414 176.173C249.685 176.492 249.115 176.993 248.705 177.677C248.295 178.36 248.113 179.34 248.158 180.615C248.204 182.21 248.25 183.714 248.295 185.126C248.341 186.539 248.363 187.974 248.363 189.432C248.363 190.844 248.363 192.302 248.363 193.806C248.409 195.264 248.432 196.836 248.432 198.522V198.795C247.657 199.023 246.951 199.159 246.313 199.205C245.675 199.251 245.015 199.251 244.331 199.205C243.648 199.205 242.896 199.182 242.076 199.137C241.301 199.091 240.367 199.114 239.274 199.205C239.274 193.601 239.205 187.997 239.069 182.392C238.978 176.788 239.023 170.979 239.205 164.965C239.752 165.01 240.208 165.056 240.572 165.101C240.937 165.101 241.278 165.101 241.597 165.101C241.916 165.101 242.258 165.101 242.623 165.101C242.987 165.056 243.443 165.01 243.989 164.965C244.172 164.965 244.491 164.942 244.946 164.896C245.447 164.851 245.949 164.805 246.45 164.76C246.997 164.714 247.452 164.714 247.817 164.76C248.227 164.76 248.432 164.805 248.432 164.896C248.432 165.261 248.432 165.534 248.432 165.716C248.432 165.899 248.432 166.058 248.432 166.195C248.432 166.286 248.432 166.4 248.432 166.537ZM111.148 212.378C112.691 213.561 113.926 214.899 114.852 216.391C115.983 218.14 116.909 219.966 117.629 221.869C118.401 223.721 119.018 225.676 119.481 227.733C119.739 228.557 119.893 229.38 119.944 230.203C120.047 230.974 120.124 231.772 120.176 232.595C120.073 235.013 119.97 237.456 119.867 239.925C119.816 242.343 119.559 244.735 119.096 247.101C119.096 247.153 119.07 247.179 119.018 247.179C119.018 247.179 119.018 247.204 119.018 247.256C117.99 250.291 116.575 253.171 114.774 255.898C113.025 258.624 111.174 261.196 109.219 263.614C105.824 263.717 102.403 263.794 98.9561 263.846C95.5095 263.846 92.1657 263.846 88.9249 263.846C88.9249 263.846 88.8992 263.871 88.8477 263.923C88.2819 259.859 87.9218 255.666 87.7675 251.345C87.6131 246.973 87.536 242.549 87.536 238.073C87.536 233.598 87.5617 229.097 87.6131 224.57C87.716 219.991 87.716 215.465 87.6131 210.989C87.6646 210.938 87.6903 210.886 87.6903 210.835C87.7417 210.783 87.7932 210.732 87.8446 210.681C89.285 210.32 90.7768 210.089 92.3201 209.986C93.9148 209.832 95.5095 209.78 97.1042 209.832C98.6989 209.832 100.268 209.857 101.811 209.909C103.406 209.96 104.949 209.96 106.441 209.909C108.087 210.32 109.656 211.143 111.148 212.378ZM106.672 245.79C107.084 245.327 107.444 244.864 107.753 244.401C108.627 243.063 109.244 241.597 109.605 240.002C110.016 238.408 110.016 236.659 109.605 234.755C109.45 233.984 109.27 233.186 109.064 232.363C108.859 231.489 108.55 230.666 108.138 229.894C107.778 229.122 107.315 228.454 106.75 227.888C106.184 227.271 105.463 226.808 104.589 226.499C103.714 226.396 102.763 226.345 101.734 226.345C100.705 226.293 99.7277 226.37 98.8017 226.576H98.6474H98.5702V226.885C98.6731 228.274 98.7246 229.765 98.7246 231.36C98.7246 232.955 98.6989 234.627 98.6474 236.376C98.596 238.073 98.5702 239.822 98.5702 241.623C98.5702 243.372 98.6217 245.121 98.7246 246.87C99.2904 247.384 100.062 247.616 101.039 247.564C102.068 247.513 103.046 247.436 103.972 247.333C104.229 247.384 104.46 247.359 104.666 247.256C104.872 247.101 105.103 246.973 105.361 246.87C105.875 246.561 106.312 246.201 106.672 245.79ZM131.706 209.755C132.94 209.806 134.715 209.806 137.03 209.755H138.882V210.063C138.882 214.487 138.805 218.937 138.65 223.412C138.547 227.888 138.445 232.389 138.342 236.916C138.29 241.391 138.29 245.867 138.342 250.342C138.393 254.818 138.547 259.242 138.805 263.614C138.393 264.026 137.519 264.257 136.181 264.309C134.895 264.412 133.48 264.437 131.937 264.386C130.445 264.334 129.005 264.257 127.616 264.154C126.227 264.103 125.275 264.154 124.761 264.309C125.121 259.679 125.275 255.023 125.224 250.342C125.173 245.661 125.07 241.031 124.915 236.453C124.812 231.823 124.735 227.271 124.684 222.795C124.684 218.268 124.915 213.844 125.378 209.523V209.369C125.636 209.317 126.124 209.343 126.844 209.446C127.616 209.497 128.182 209.523 128.542 209.523C129.468 209.575 130.522 209.652 131.706 209.755ZM176.365 264.231C176.005 264.334 175.387 264.386 174.513 264.386C173.484 264.386 172.301 264.309 170.963 264.154C169.626 264.051 168.443 264 167.414 264C165.716 260.193 164.019 256.515 162.321 252.966C160.675 249.365 159.26 245.918 158.077 242.626L157.306 240.311C157.1 239.745 156.894 239.231 156.688 238.768C156.534 238.253 156.405 237.996 156.302 237.996C156.251 237.996 156.174 238.613 156.071 239.848C156.02 241.083 155.968 242.652 155.917 244.555C155.865 246.458 155.814 248.567 155.762 250.882C155.762 253.197 155.762 255.435 155.762 257.595C155.762 258.779 155.762 259.936 155.762 261.068C155.762 262.148 155.788 263.125 155.84 264C155.274 264.154 154.708 264.257 154.142 264.309C153.576 264.36 153.01 264.386 152.444 264.386C151.21 264.386 149.949 264.309 148.663 264.154C147.429 264 146.22 263.923 145.037 263.923V258.521C145.037 253.634 144.985 248.979 144.882 244.555C144.831 240.131 144.805 235.501 144.805 230.666C144.805 227.116 144.857 223.618 144.96 220.172C145.062 216.673 145.242 213.278 145.5 209.986C146.014 209.883 146.554 209.806 147.12 209.755C147.737 209.703 148.355 209.677 148.972 209.677C149.281 209.677 149.795 209.703 150.515 209.755C151.235 209.755 151.956 209.806 152.676 209.909C153.396 209.96 154.013 210.037 154.528 210.14C155.094 210.243 155.377 210.346 155.377 210.449C155.737 211.375 156.071 212.147 156.38 212.764C156.688 213.381 156.971 213.973 157.228 214.539C157.537 215.105 157.846 215.748 158.154 216.468C158.514 217.136 158.926 218.011 159.389 219.091C159.492 219.348 159.723 219.837 160.083 220.557C160.444 221.278 160.855 222.126 161.318 223.104C161.781 224.03 162.27 225.033 162.784 226.113C163.299 227.142 163.762 228.094 164.173 228.968C164.636 229.791 165.022 230.511 165.331 231.129C165.639 231.695 165.819 231.977 165.871 231.977C166.025 231.875 166.154 231.36 166.256 230.434C166.359 229.508 166.411 228.608 166.411 227.733C166.411 225.676 166.359 223.772 166.256 222.023C166.205 220.223 166.179 218.397 166.179 216.545C166.179 215.465 166.179 214.384 166.179 213.304C166.231 212.172 166.282 210.963 166.334 209.677C168.083 209.369 169.935 209.214 171.889 209.214C173.793 209.214 175.49 209.369 176.982 209.677V234.524C177.034 236.684 177.059 238.871 177.059 241.083C177.059 243.295 177.059 245.507 177.059 247.719C177.059 249.21 177.034 250.651 176.982 252.04C176.982 253.429 176.982 254.843 176.982 256.284C176.982 257.313 176.982 258.341 176.982 259.37C177.034 260.399 177.059 261.428 177.059 262.457V264C176.956 264.051 176.725 264.129 176.365 264.231ZM214.796 264.231C214.435 264.334 213.818 264.386 212.944 264.386C211.915 264.386 210.732 264.309 209.394 264.154C208.057 264.051 206.873 264 205.845 264C204.147 260.193 202.449 256.515 200.752 252.966C199.106 249.365 197.691 245.918 196.508 242.626L195.736 240.311C195.531 239.745 195.325 239.231 195.119 238.768C194.965 238.253 194.836 237.996 194.733 237.996C194.682 237.996 194.605 238.613 194.502 239.848C194.45 241.083 194.399 242.652 194.347 244.555C194.296 246.458 194.244 248.567 194.193 250.882C194.193 253.197 194.193 255.435 194.193 257.595C194.193 258.779 194.193 259.936 194.193 261.068C194.193 262.148 194.219 263.125 194.27 264C193.704 264.154 193.138 264.257 192.573 264.309C192.007 264.36 191.441 264.386 190.875 264.386C189.64 264.386 188.38 264.309 187.094 264.154C185.859 264 184.651 263.923 183.467 263.923V258.521C183.467 253.634 183.416 248.979 183.313 244.555C183.262 240.131 183.236 235.501 183.236 230.666C183.236 227.116 183.287 223.618 183.39 220.172C183.493 216.673 183.673 213.278 183.93 209.986C184.445 209.883 184.985 209.806 185.551 209.755C186.168 209.703 186.785 209.677 187.403 209.677C187.711 209.677 188.226 209.703 188.946 209.755C189.666 209.755 190.386 209.806 191.107 209.909C191.827 209.96 192.444 210.037 192.958 210.14C193.524 210.243 193.807 210.346 193.807 210.449C194.167 211.375 194.502 212.147 194.81 212.764C195.119 213.381 195.402 213.973 195.659 214.539C195.968 215.105 196.276 215.748 196.585 216.468C196.945 217.136 197.357 218.011 197.82 219.091C197.923 219.348 198.154 219.837 198.514 220.557C198.874 221.278 199.286 222.126 199.749 223.104C200.212 224.03 200.7 225.033 201.215 226.113C201.729 227.142 202.192 228.094 202.604 228.968C203.067 229.791 203.453 230.511 203.761 231.129C204.07 231.695 204.25 231.977 204.301 231.977C204.456 231.875 204.584 231.36 204.687 230.434C204.79 229.508 204.842 228.608 204.842 227.733C204.842 225.676 204.79 223.772 204.687 222.023C204.636 220.223 204.61 218.397 204.61 216.545C204.61 215.465 204.61 214.384 204.61 213.304C204.661 212.172 204.713 210.963 204.764 209.677C206.513 209.369 208.365 209.214 210.32 209.214C212.223 209.214 213.921 209.369 215.413 209.677V234.524C215.464 236.684 215.49 238.871 215.49 241.083C215.49 243.295 215.49 245.507 215.49 247.719C215.49 249.21 215.464 250.651 215.413 252.04C215.413 253.429 215.413 254.843 215.413 256.284C215.413 257.313 215.413 258.341 215.413 259.37C215.464 260.399 215.49 261.428 215.49 262.457V264C215.387 264.051 215.156 264.129 214.796 264.231ZM244.198 253.429C247.49 253.583 250.886 253.609 254.384 253.506V253.66C254.487 255.306 254.512 257.03 254.461 258.83C254.409 260.579 254.178 262.225 253.766 263.769C248.519 263.717 243.169 263.794 237.716 264C232.315 264.154 227.119 264.026 222.13 263.614C222.13 259.139 222.078 254.715 221.975 250.342C221.872 245.918 221.795 241.52 221.744 237.147C221.692 232.775 221.692 228.402 221.744 224.03C221.795 219.657 221.95 215.259 222.207 210.835C224.213 210.732 226.374 210.655 228.688 210.603C231.055 210.5 233.421 210.423 235.787 210.372C238.154 210.32 240.443 210.269 242.655 210.218C244.867 210.166 246.822 210.14 248.519 210.14C250.217 210.14 251.58 210.166 252.609 210.218C253.638 210.269 254.152 210.32 254.152 210.372C254.409 212.172 254.461 213.999 254.306 215.85C254.204 217.702 254.152 219.529 254.152 221.329V221.406C252.506 221.766 250.834 221.998 249.137 222.101C247.49 222.152 245.819 222.178 244.121 222.178C242.423 222.126 240.726 222.101 239.028 222.101C237.331 222.101 235.633 222.178 233.935 222.332H233.704L233.627 222.409C233.678 223.901 233.601 225.444 233.395 227.039C233.241 228.582 233.344 230.048 233.704 231.437L233.781 231.514C235.324 231.617 236.893 231.669 238.488 231.669C240.083 231.669 241.677 231.695 243.272 231.746V231.823C243.529 233.572 243.607 235.321 243.504 237.07C243.401 238.819 243.375 240.645 243.427 242.549C242.655 242.755 241.78 242.883 240.803 242.935C239.826 242.935 238.874 242.935 237.948 242.935C237.073 242.935 236.276 242.96 235.556 243.012C234.836 243.063 234.347 243.192 234.09 243.398C233.833 244.889 233.73 246.561 233.781 248.413C233.884 250.265 233.987 251.808 234.09 253.043L234.167 253.12C237.562 253.12 240.906 253.223 244.198 253.429ZM292.768 257.673C293.9 259.627 294.851 261.659 295.623 263.769H295.7C293.9 263.769 291.893 263.846 289.681 264C287.469 264.103 285.206 264.077 282.891 263.923H282.814C282.299 262.74 281.656 261.325 280.885 259.679C280.113 258.033 279.264 256.309 278.338 254.509C277.412 252.709 276.409 250.934 275.329 249.185C274.249 247.436 273.169 245.892 272.088 244.555L271.934 244.323C271.78 245.507 271.702 246.973 271.702 248.722C271.702 250.419 271.728 252.194 271.78 254.046C271.882 255.846 271.985 257.57 272.088 259.216C272.191 260.862 272.268 262.174 272.32 263.151C271.445 263.511 270.288 263.743 268.847 263.846C267.458 263.949 266.07 264 264.681 264C263.292 264.051 262.031 264.051 260.9 264C259.819 263.949 259.151 263.949 258.893 264C258.996 264 259.073 263.306 259.125 261.917C259.176 260.476 259.202 258.599 259.202 256.284C259.202 253.969 259.202 251.32 259.202 248.336C259.202 245.301 259.176 242.189 259.125 238.999C259.125 235.758 259.073 232.569 258.971 229.431C258.919 226.242 258.868 223.335 258.816 220.712C258.765 218.037 258.688 215.773 258.585 213.921C258.533 212.018 258.456 210.732 258.353 210.063C261.234 209.652 264.398 209.266 267.844 208.906C271.291 208.546 274.892 208.571 278.647 208.983C281.682 209.137 284.409 210.012 286.826 211.606C289.244 213.201 291.122 215.182 292.459 217.548C293.797 219.914 294.491 222.538 294.543 225.419C294.646 228.248 293.9 231 292.305 233.675C291.328 235.527 290.016 237.07 288.37 238.305C286.775 239.539 284.743 240.234 282.274 240.388H281.965H281.888V240.465C282.968 242.369 284.151 244.272 285.437 246.175C286.723 248.027 287.984 249.905 289.218 251.808C290.453 253.712 291.636 255.666 292.768 257.673ZM274.943 219.709C273.194 219.76 271.42 220.146 269.619 220.866C269.67 221.535 269.696 222.306 269.696 223.181C269.748 224.004 269.773 224.853 269.773 225.727C269.773 226.602 269.773 227.451 269.773 228.274C269.825 229.097 269.902 229.791 270.005 230.357H270.082C271.265 230.46 272.551 230.537 273.94 230.589C275.329 230.64 276.641 230.563 277.875 230.357C278.853 230.151 279.599 229.663 280.113 228.891C280.679 228.068 281.013 227.193 281.116 226.267C281.219 225.29 281.116 224.338 280.808 223.412C280.499 222.435 279.985 221.663 279.264 221.097C278.133 220.069 276.692 219.606 274.943 219.709ZM305.622 263.846H305.467L299.68 263.923C299.526 263.923 299.448 263.588 299.448 262.92C299.448 262.251 299.474 261.454 299.526 260.528C299.577 259.55 299.654 258.547 299.757 257.518C299.86 256.489 299.911 255.615 299.911 254.895V254.818C300.529 254.56 301.223 254.406 301.995 254.355C302.766 254.303 303.564 254.303 304.387 254.355C305.261 254.406 306.11 254.483 306.933 254.586C307.756 254.638 308.554 254.663 309.325 254.663C309.274 256.104 309.222 257.647 309.171 259.293C309.12 260.888 309.094 262.431 309.094 263.923H308.554C307.936 263.923 307.422 263.923 307.01 263.923C306.65 263.871 306.187 263.846 305.622 263.846ZM299.063 220.249C299.114 216.802 299.243 213.33 299.448 209.832H299.68C301.017 209.729 302.561 209.575 304.31 209.369C306.11 209.163 307.731 209.266 309.171 209.677C309.068 216.262 308.965 223.078 308.862 230.126C308.811 237.122 308.94 243.912 309.248 250.497C307.911 250.651 306.29 250.754 304.387 250.805C302.484 250.805 300.786 250.831 299.294 250.882H299.217C299.268 247.487 299.268 244.092 299.217 240.697C299.217 237.302 299.191 233.907 299.14 230.511C299.088 227.116 299.063 223.695 299.063 220.249Z" fill="black"/>
<path d="M402 113.206L402 114.224C401.398 114.563 400.73 114.8 400.029 114.833C396.019 115.139 392.009 115.818 387.965 115.648C386.495 115.614 385.058 115.92 383.62 115.92C379.844 115.648 376.035 115.885 372.259 115.648C367.347 115.681 362.467 115.681 357.555 115.648C354.614 115.648 351.673 115.716 348.766 115.377C345.859 115.172 342.918 115.444 340.012 115.105C337.906 114.833 335.8 115.479 333.662 115.072C331.49 114.698 329.318 115.172 327.18 115.512C325.977 115.783 324.674 115.953 323.704 116.768C323.203 117.582 323.704 118.634 324.006 119.447C324.94 120.907 326.846 121.279 328.483 121.313C335.267 121.483 342.083 121.755 348.901 121.788C353.111 122.127 357.322 121.89 361.565 122.263C368.716 122.466 375.834 122.942 382.986 123.145C389.335 123.518 395.884 123.349 402 125.384L402 126.978C399.727 127.25 397.555 127.963 395.316 128.302C391.306 128.233 387.33 128.675 383.32 128.642C380.579 128.844 377.839 129.082 375.099 129.014C373.562 129.251 372.025 128.777 370.487 129.014C369.384 129.116 368.283 128.946 367.18 129.082C363.671 129.49 360.096 128.912 356.553 129.455C355.182 129.692 353.846 129.218 352.476 129.421C349.034 129.829 345.559 129.286 342.117 129.727C338.474 130.201 334.765 129.59 331.156 130.168C329.085 130.439 326.979 130.303 325.008 130.982C323.269 131.423 322.702 134.442 324.473 135.222C326.178 136.24 328.249 136.036 330.154 136.138C342.852 136.138 355.55 136.105 368.249 136.138C373.362 136.342 378.507 136.138 383.62 136.342C389.768 136.444 396.118 136.138 402 138.31L402 140.244C399.427 141.024 396.719 141.057 394.08 141.533C391.173 141.872 388.232 142.279 385.291 142.482C381.984 142.414 378.674 142.449 375.367 142.516C372.559 142.856 369.719 142.686 366.912 143.06C364.239 142.958 361.565 143.602 358.892 143.466C356.754 143.399 354.681 143.941 352.543 143.839C349.87 143.669 347.196 143.941 344.523 144.111C341.716 144.008 338.975 144.586 336.169 144.484C334.164 144.417 332.159 144.891 330.154 144.823C328.249 144.789 326.21 144.823 324.473 145.774C322.869 146.722 322.367 149.845 324.372 150.624C326.077 151.439 328.048 151.1 329.853 150.998C333.429 150.862 336.97 150.862 340.513 150.793C346.427 150.387 352.309 150.658 358.189 150.285C365.875 150.047 373.595 150.217 381.281 150.082C385.525 150.014 389.736 150.047 393.979 150.014C396.285 150.082 398.624 150.047 400.864 150.591C401.398 150.693 401.665 151.167 402 151.574L402 152.185C400.796 153.44 398.992 153.576 397.422 154.016C395.25 154.594 393.011 154.627 390.771 154.797C385.827 155.849 380.78 156.221 375.802 157.172C361.966 159.377 348.265 162.227 334.432 164.398C328.616 165.416 322.736 165.924 316.888 166.569C308.733 167.247 300.413 167.281 292.359 165.518C290.856 165.212 289.587 164.228 288.049 163.957C286.145 163.719 284.741 162.193 283.103 161.31C280.496 159.309 277.624 157.647 275.351 155.273C273.98 153.779 272.343 152.559 271.174 150.896C270.238 149.539 268.935 148.488 267.866 147.266C265.861 145.026 263.355 143.399 260.814 141.873C257.907 140.379 255.001 138.581 251.659 138.311C238.626 137.767 225.526 137.563 212.461 138.141C206.045 138.887 199.562 138.887 193.112 139.328C185.327 139.837 177.507 140.074 169.72 140.855C163.572 141.227 157.491 142.245 151.375 142.821C149.404 142.991 147.498 143.467 145.527 143.806C138.443 144.383 131.392 145.57 124.274 146.181C119.93 146.859 115.519 147.301 111.142 147.877C103.523 148.556 95.9373 149.234 88.3845 150.252C82.1018 150.726 75.8191 151.642 69.504 152.016C64.9587 152.762 60.3809 152.864 55.8032 153.305C50.4224 153.61 45.0433 154.051 39.6626 154.153C35.7869 154.526 31.9102 154.186 28.0332 154.425C23.556 154.628 19.0785 154.221 14.7006 153.169C10.1893 152.083 5.87924 149.437 3.37298 145.366C2.2034 143.569 1.86924 141.397 0.999874 139.429L0.999875 129.693C1.36799 129.049 1.73477 128.404 1.9358 127.657C2.63679 125.419 3.77372 123.349 5.2109 121.518C7.61664 118.565 11.0589 116.768 14.5335 115.479C19.3125 114.494 24.1903 114.087 29.0698 114.087C32.8462 114.087 36.6551 113.985 40.4315 114.257C46.4806 114.291 52.4956 115.105 58.5106 115.614C67.6323 116.564 76.7555 117.345 85.8445 118.362C112.111 121.246 138.442 123.621 164.741 126.165C167.983 126.437 171.224 126.877 174.466 126.877C180.481 127.25 186.496 127.455 192.477 127.827C195.919 127.827 199.362 128.268 202.802 128.268C205.175 128.54 207.581 128.472 209.987 128.675C212.694 129.151 215.468 128.947 218.208 128.981C227.231 129.014 236.253 128.981 245.276 129.049C246.98 129.082 248.718 129.014 250.355 128.573C255.067 127.59 260.112 126.504 263.721 123.078C266.395 120.466 269.102 117.921 271.709 115.242C278.726 107.676 288.015 102.281 298.04 100.178C302.885 99.0931 307.865 98.9234 312.777 99.0255C325.442 99.5344 337.906 101.842 350.371 103.842C358.826 105.234 367.281 106.556 375.734 107.948C383.854 109.203 391.941 110.797 400.029 112.154C400.796 112.222 401.499 112.628 402 113.206L402 113.206Z" fill="black" stroke="black" stroke-width="0.137791"/>
</svg>
